<?xml version="1.0" encoding="UTF-8"?>
<svg version="1.1" xmlns="http://www.w3.org/2000/svg" width="512" height="512">
<path d="M0 0 C0.91942383 0.00215515 1.83884766 0.0043103 2.78613281 0.00653076 C60.76894539 0.22399145 116.2697802 19.78582336 161.375 56.3125 C161.91946777 56.75255371 162.46393555 57.19260742 163.02490234 57.64599609 C177.09673929 69.12424863 190.31180647 81.88969064 201.375 96.3125 C202.13425781 97.24320312 202.89351563 98.17390625 203.67578125 99.1328125 C211.52465998 108.92200415 217.99417978 119.52546474 224.375 130.3125 C224.95894531 131.28993164 224.95894531 131.28993164 225.5546875 132.28710938 C247.38644274 169.26156702 256.85781833 213.36793736 256.6875 255.9375 C256.68534485 256.90838562 256.6831897 257.87927124 256.68096924 258.87957764 C256.62992827 273.21501026 256.24721848 287.22275803 253.375 301.3125 C253.17100586 302.33859375 252.96701172 303.3646875 252.75683594 304.421875 C243.67422076 349.05493007 224.62837333 390.10503836 194.375 424.3125 C193.65054687 425.1478125 192.92609375 425.983125 192.1796875 426.84375 C182.4349286 437.91897413 172.03537586 448.26364912 160.375 457.3125 C159.44042969 458.075625 158.50585938 458.83875 157.54296875 459.625 C147.75443247 467.46588144 137.15748792 473.93436966 126.375 480.3125 C125.72337891 480.70179688 125.07175781 481.09109375 124.40039062 481.4921875 C101.31580413 495.12259817 75.04599304 503.20674414 48.9375 508.625 C47.87704468 508.84627563 47.87704468 508.84627563 46.79516602 509.07202148 C31.53444126 512.00446099 16.24759951 512.69076913 0.75 512.625 C-0.16942383 512.62284485 -1.08884766 512.6206897 -2.03613281 512.61846924 C-62.96424848 512.38996239 -121.85422446 490.79256762 -167.625 450.3125 C-168.4603125 449.58804687 -169.295625 448.86359375 -170.15625 448.1171875 C-181.23147413 438.3724286 -191.57614912 427.97287586 -200.625 416.3125 C-201.388125 415.37792969 -202.15125 414.44335938 -202.9375 413.48046875 C-210.77838144 403.69193247 -217.24686966 393.09498792 -223.625 382.3125 C-224.20894531 381.33506836 -224.20894531 381.33506836 -224.8046875 380.33789062 C-246.63644274 343.36343298 -256.10781833 299.25706264 -255.9375 256.6875 C-255.93534485 255.71661438 -255.9331897 254.74572876 -255.93096924 253.74542236 C-255.87992827 239.40998974 -255.49721848 225.40224197 -252.625 211.3125 C-252.42100586 210.28640625 -252.21701172 209.2603125 -252.00683594 208.203125 C-242.92422076 163.57006993 -223.87837333 122.51996164 -193.625 88.3125 C-192.90054688 87.4771875 -192.17609375 86.641875 -191.4296875 85.78125 C-181.6849286 74.70602587 -171.28537586 64.36135088 -159.625 55.3125 C-158.69042969 54.549375 -157.75585938 53.78625 -156.79296875 53 C-147.00443247 45.15911856 -136.40748792 38.69063034 -125.625 32.3125 C-124.97337891 31.92320313 -124.32175781 31.53390625 -123.65039062 31.1328125 C-100.56580413 17.50240183 -74.29599304 9.41825586 -48.1875 4 C-47.48052979 3.85248291 -46.77355957 3.70496582 -46.04516602 3.55297852 C-30.78444126 0.62053901 -15.49759951 -0.06576913 0 0 Z M-147.25 148.375 C-148.63396973 148.70624878 -148.63396973 148.70624878 -150.04589844 149.04418945 C-159.34852497 151.45485703 -168.32911076 154.86770364 -173.625 163.3125 C-176.67386202 169.5679238 -176.77849671 177.04387146 -174.97265625 183.7265625 C-171.77898328 190.82665948 -166.04584293 195.13837545 -158.91015625 197.8671875 C-151.45280573 199.32041478 -145.10227351 197.60371688 -137.9375 195.625 C-118.2543502 190.45543898 -97.93178113 186.87487144 -77.625 185.3125 C-76.55233887 185.22709961 -75.47967773 185.14169922 -74.37451172 185.05371094 C3.03912791 179.51494816 85.0340298 189.52816736 153.546875 227.8515625 C158.6501604 230.48779004 163.71991545 231.27399226 169.39453125 229.78125 C177.43001759 226.95423377 182.59939802 223.01412635 186.375 215.3125 C188.78370287 207.61078763 187.70436943 200.88300062 184.25 193.734375 C155.37534005 156.43793924 75.00021311 145.83487164 32.15939331 140.31640625 C26.23885699 139.57748268 20.30849578 138.93814869 14.375 138.3125 C12.77132568 138.13460937 12.77132568 138.13460937 11.13525391 137.953125 C-41.30120232 132.31786215 -95.99702258 135.9602634 -147.25 148.375 Z M-125.5625 233.3125 C-126.60986328 233.54936523 -127.65722656 233.78623047 -128.73632812 234.03027344 C-143.67206373 237.36569833 -143.67206373 237.36569833 -155.625 246.3125 C-158.69245701 251.55686199 -159.50669763 256.36616712 -158.625 262.3125 C-156.93379 268.49105386 -153.44843616 271.69169513 -148.234375 275.18359375 C-139.88680048 278.7950444 -132.67710929 276.40004904 -124.26089478 274.19656372 C-45.13593054 253.62475402 46.77437222 262.87183226 117.86743164 304.41503906 C123.92560392 307.86716298 128.83062784 310.05035709 135.94921875 308.89453125 C142.01470967 306.68584047 146.35664366 304.43554028 149.6875 298.6875 C152.22131932 293.09025159 152.38210663 287.84322846 150.703125 281.95703125 C147.61596106 275.05840721 141.86016077 271.86813752 135.45507812 268.4296875 C133.19992022 267.21846654 130.96852271 265.96826515 128.734375 264.71875 C115.41002761 257.39399663 101.62437528 251.58409331 87.375 246.3125 C86.03767822 245.8177417 86.03767822 245.8177417 84.67333984 245.31298828 C44.27803973 230.61890022 0.89601687 224.05846016 -42 224.125 C-42.73178467 224.12560425 -43.46356934 224.1262085 -44.2175293 224.12683105 C-71.74874055 224.18787917 -98.70112808 227.21744975 -125.5625 233.3125 Z M-143.23901367 322.75439453 C-147.28221462 327.48202672 -147.99048556 330.66190976 -147.89453125 336.70703125 C-147.3978507 341.50827659 -145.70288248 344.62085921 -141.96484375 347.6640625 C-133.20285312 352.95364206 -121.73014682 348.86710146 -112.375 346.9375 C-93.0753347 343.09005863 -73.45709651 340.20239711 -53.74609375 340.109375 C-52.24317024 340.09878555 -52.24317024 340.09878555 -50.70988464 340.08798218 C-8.225859 339.8566027 -8.225859 339.8566027 10.375 343.3125 C11.47312012 343.51649414 12.57124023 343.72048828 13.70263672 343.93066406 C38.37680518 348.68621287 61.86533619 356.2198278 83.9453125 368.33203125 C85.3375 369.0904834 85.3375 369.0904834 86.7578125 369.86425781 C88.53225905 370.84184642 90.29624927 371.83876635 92.046875 372.85839844 C97.85055442 376.07575564 102.73183845 377.3297528 109.375 376.3125 C114.21358548 373.98281069 117.04531069 371.15108548 119.375 366.3125 C120.15129782 361.4487565 119.93620148 357.58130335 117.9375 353.0625 C104.67746195 338.83221526 81.35069612 330.74439594 63.375 324.3125 C62.53743164 324.01005371 61.69986328 323.70760742 60.83691406 323.39599609 C45.03366932 317.78617332 28.86966277 314.23023691 12.375 311.3125 C11.38806152 311.13170898 10.40112305 310.95091797 9.38427734 310.76464844 C-23.61973906 304.99539726 -114.91389489 297.4498791 -143.23901367 322.75439453 Z " fill="#FEFEFE" transform="translate(255.625,-0.3125)"/>
</svg>
